<svg fill="none" viewBox="0 0 800 100" width="800" height="100" xmlns="http://www.w3.org/2000/svg">
  <foreignObject width="100%" height="100%">
    <div xmlns="http://www.w3.org/1999/xhtml">
      <style>
        .contact-card {
          width: 100%;
          height: 90px;
          background: #0d1117;
          color: #e6edf3;
          padding: 24px 40px;
          border-radius: 0px;
          font-family: 'Segoe UI', system-ui, -apple-system, sans-serif;
          border: 1px solid #21262d;
          box-sizing: border-box;
          display: flex;
          flex-direction: column;
          justify-content: center;
          gap: 10px;
        }
        .contact-row {
          display: flex;
          align-items: center;
          font-size: 14px;
          line-height: 1;
          gap: 10px;
        }
        .contact-icon {
          width: 14px;
          height: 14px;
          flex-shrink: 0;
        }
        .contact-label {
          color: #e6edf3;
          font-weight: 600;
          width: 90px;
          flex-shrink: 0;
          font-size: 12px;
          text-transform: uppercase;
          letter-spacing: 0.5px;
        }
        .contact-value {
          color: #8b949e;
          font-weight: 400;
        }
      </style>
      <div class="contact-card">
        <div class="contact-row">
          <svg class="contact-icon" viewBox="0 0 15 15" fill="none" xmlns="http://www.w3.org/2000/svg">
            <path fill="#e6edf3" d="M14 2a1 1 0 0 1 1 1v9a1 1 0 0 1-1 1H1a1 1 0 0 1-1-1V3a1 1 0 0 1 1-1zM7.741 8.88a.45.45 0 0 1-.426.03l-.056-.03L1 4.907V12h13V4.907zM1 3.925q.08 0 .16.03l.081.04L7.5 7.967l6.259-3.972a.45.45 0 0 1 .241-.07V3H1z"/>
          </svg>
          <span class="contact-label">Email</span>
          <span class="contact-value">syedfaraz1900@gmail.com</span>
        </div>
        <div class="contact-row">
          <svg class="contact-icon" viewBox="0 0 15 15" fill="none" xmlns="http://www.w3.org/2000/svg">
            <path fill="#e6edf3" d="M13 1a1 1 0 0 1 1 1v11a1 1 0 0 1-1 1H2a1 1 0 0 1-1-1V2a1 1 0 0 1 1-1zM9.675 5.85a2.2 2.2 0 0 0-1.096.231c-.257.129-.527.424-.734.938h-.053V6H6v6.005h1.906V8.812c-.027-.328.077-.75.291-1.002s.521-.312.753-.342h.072c.607 0 1.056.375 1.056 1.321v3.216h1.906L12 8.357c0-1.804-1.166-2.506-2.325-2.506M3.05 12h1.9V6h-1.9zM4 2.93a1.075 1.075 0 1 0 0 2.15a1.075 1.075 0 0 0 0-2.15"/>
          </svg>
          <span class="contact-label">LinkedIn</span>
          <span class="contact-value">linkedin.com/in/syed-faraz18001</span>
        </div>
      </div>
    </div>
  </foreignObject>
</svg>
